HIERARCHY
ROOT __0
{
	OFFSET 0.0 0.0 0.0
	CHANNELS 0
	JOINT Hips
	{
		OFFSET 0.000000 0.000000 0.000000
		CHANNELS 6 Xposition Yposition Zposition Xrotation Yrotation Zrotation
		JOINT Spine
		{
			OFFSET 10.005940 -0.000000 0.000014
			CHANNELS 6 Xposition Yposition Zposition Xrotation Yrotation Zrotation
			JOINT Spine1
			{
				OFFSET 21.665001 -0.000000 -0.000000
				CHANNELS 6 Xposition Yposition Zposition Xrotation Yrotation Zrotation
				JOINT Neck
				{
					OFFSET 25.833000 0.000000 -0.000000
					CHANNELS 6 Xposition Yposition Zposition Xrotation Yrotation Zrotation
					JOINT Head
					{
						OFFSET 14.033596 -0.000000 0.000000
						CHANNELS 6 Xposition Yposition Zposition Xrotation Yrotation Zrotation
						JOINT HeadNub
						{
							OFFSET 21.600510 0.000000 0.000000
							CHANNELS 6 Xposition Yposition Zposition Xrotation Yrotation Zrotation
							End Site
							{
								OFFSET 0.000000 21.600510 0.000000
							}
						}
					}
				}
				JOINT LeftShoulder
				{
					OFFSET 21.665001 -0.000000 3.045000
					CHANNELS 6 Xposition Yposition Zposition Xrotation Yrotation Zrotation
					JOINT LeftArm
					{
						OFFSET 0.000000 -0.000000 15.550001
						CHANNELS 6 Xposition Yposition Zposition Xrotation Yrotation Zrotation
						JOINT LeftForeArm
						{
							OFFSET -19.070633 0.000002 19.070707
							CHANNELS 6 Xposition Yposition Zposition Xrotation Yrotation Zrotation
							JOINT LeftHand
							{
								OFFSET -18.782471 0.000001 18.782467
								CHANNELS 6 Xposition Yposition Zposition Xrotation Yrotation Zrotation
								JOINT LeftHandThumb1
								{
									OFFSET -4.939494 -1.249041 0.422050
									CHANNELS 6 Xposition Yposition Zposition Xrotation Yrotation Zrotation
									JOINT LeftHandThumb2
									{
										OFFSET -2.517302 0.000000 2.517300
										CHANNELS 6 Xposition Yposition Zposition Xrotation Yrotation Zrotation
										JOINT LeftHandThumb3
										{
											OFFSET -1.826117 0.000000 1.826115
											CHANNELS 6 Xposition Yposition Zposition Xrotation Yrotation Zrotation
											End Site
											{
												OFFSET 0.000000 -2.582519 0.000000
											}
										}
									}
								}
								JOINT LeftHandIndex1
								{
									OFFSET -8.597697 0.000001 5.278145
									CHANNELS 6 Xposition Yposition Zposition Xrotation Yrotation Zrotation
									JOINT LeftHandIndex2
									{
										OFFSET -2.302887 0.000000 2.302887
										CHANNELS 6 Xposition Yposition Zposition Xrotation Yrotation Zrotation
										JOINT LeftHandIndex3
										{
											OFFSET -1.960194 0.000000 1.960197
											CHANNELS 6 Xposition Yposition Zposition Xrotation Yrotation Zrotation
											End Site
											{
												OFFSET -0.000000 -2.772133 0.000000
											}
										}
									}
								}
								JOINT LeftHandMiddle1
								{
									OFFSET -7.533892 0.000001 7.091263
									CHANNELS 6 Xposition Yposition Zposition Xrotation Yrotation Zrotation
									JOINT LeftHandMiddle2
									{
										OFFSET -2.425842 0.000000 2.425842
										CHANNELS 6 Xposition Yposition Zposition Xrotation Yrotation Zrotation
										JOINT LeftHandMiddle3
										{
											OFFSET -2.089242 0.000000 2.089241
											CHANNELS 6 Xposition Yposition Zposition Xrotation Yrotation Zrotation
											End Site
											{
												OFFSET -0.000000 -2.954633 0.000000
											}
										}
									}
								}
								JOINT LeftHandRing1
								{
									OFFSET -5.804094 0.000001 8.321640
									CHANNELS 6 Xposition Yposition Zposition Xrotation Yrotation Zrotation
									JOINT LeftHandRing2
									{
										OFFSET -2.291877 0.000000 2.291878
										CHANNELS 6 Xposition Yposition Zposition Xrotation Yrotation Zrotation
										JOINT LeftHandRing3
										{
											OFFSET -1.953971 0.000000 1.953972
											CHANNELS 6 Xposition Yposition Zposition Xrotation Yrotation Zrotation
											End Site
											{
												OFFSET -0.000000 -2.763332 0.000000
											}
										}
									}
								}
								JOINT LeftHandPinky1
								{
									OFFSET -3.770287 0.000000 8.934921
									CHANNELS 6 Xposition Yposition Zposition Xrotation Yrotation Zrotation
									JOINT LeftHandPinky2
									{
										OFFSET -1.968662 0.000000 1.968666
										CHANNELS 6 Xposition Yposition Zposition Xrotation Yrotation Zrotation
										JOINT LeftHandPinky3
										{
											OFFSET -1.410385 0.000000 1.410385
											CHANNELS 6 Xposition Yposition Zposition Xrotation Yrotation Zrotation
											End Site
											{
												OFFSET 0.000000 -1.994586 0.000000
											}
										}
									}
								}
							}
						}
					}
				}
				JOINT RightShoulder
				{
					OFFSET 21.665001 -0.000000 -3.045000
					CHANNELS 6 Xposition Yposition Zposition Xrotation Yrotation Zrotation
					JOINT RightArm
					{
						OFFSET 0.000057 -0.000000 -15.549999
						CHANNELS 6 Xposition Yposition Zposition Xrotation Yrotation Zrotation
						JOINT RightForeArm
						{
							OFFSET -19.070633 0.000002 -19.070709
							CHANNELS 6 Xposition Yposition Zposition Xrotation Yrotation Zrotation
							JOINT RightHand
							{
								OFFSET -18.782467 0.000002 -18.782467
								CHANNELS 6 Xposition Yposition Zposition Xrotation Yrotation Zrotation
								JOINT RightHandThumb1
								{
									OFFSET -4.939487 -1.249050 -0.422047
									CHANNELS 6 Xposition Yposition Zposition Xrotation Yrotation Zrotation
									JOINT RightHandThumb2
									{
										OFFSET -2.517301 0.000000 -2.517300
										CHANNELS 6 Xposition Yposition Zposition Xrotation Yrotation Zrotation
										JOINT RightHandThumb3
										{
											OFFSET -1.826117 0.000000 -1.826115
											CHANNELS 6 Xposition Yposition Zposition Xrotation Yrotation Zrotation
											End Site
											{
												OFFSET 0.000000 -2.582519 0.000000
											}
										}
									}
								}
								JOINT RightHandIndex1
								{
									OFFSET -8.597696 -0.000003 -5.278137
									CHANNELS 6 Xposition Yposition Zposition Xrotation Yrotation Zrotation
									JOINT RightHandIndex2
									{
										OFFSET -2.302887 0.000000 -2.302883
										CHANNELS 6 Xposition Yposition Zposition Xrotation Yrotation Zrotation
										JOINT RightHandIndex3
										{
											OFFSET -1.960194 0.000000 -1.960197
											CHANNELS 6 Xposition Yposition Zposition Xrotation Yrotation Zrotation
											End Site
											{
												OFFSET -0.000000 -2.772133 0.000000
											}
										}
									}
								}
								JOINT RightHandMiddle1
								{
									OFFSET -7.533897 -0.000002 -7.091248
									CHANNELS 6 Xposition Yposition Zposition Xrotation Yrotation Zrotation
									JOINT RightHandMiddle2
									{
										OFFSET -2.425842 0.000000 -2.425838
										CHANNELS 6 Xposition Yposition Zposition Xrotation Yrotation Zrotation
										JOINT RightHandMiddle3
										{
											OFFSET -2.089242 0.000000 -2.089241
											CHANNELS 6 Xposition Yposition Zposition Xrotation Yrotation Zrotation
											End Site
											{
												OFFSET -0.000000 -2.954633 0.000000
											}
										}
									}
								}
								JOINT RightHandRing1
								{
									OFFSET -5.804094 -0.000003 -8.321636
									CHANNELS 6 Xposition Yposition Zposition Xrotation Yrotation Zrotation
									JOINT RightHandRing2
									{
										OFFSET -2.291877 0.000000 -2.291878
										CHANNELS 6 Xposition Yposition Zposition Xrotation Yrotation Zrotation
										JOINT RightHandRing3
										{
											OFFSET -1.953971 0.000000 -1.953972
											CHANNELS 6 Xposition Yposition Zposition Xrotation Yrotation Zrotation
											End Site
											{
												OFFSET -0.000000 -2.763332 0.000000
											}
										}
									}
								}
								JOINT RightHandPinky1
								{
									OFFSET -3.770285 -0.000004 -8.934925
									CHANNELS 6 Xposition Yposition Zposition Xrotation Yrotation Zrotation
									JOINT RightHandPinky2
									{
										OFFSET -1.968663 0.000000 -1.968666
										CHANNELS 6 Xposition Yposition Zposition Xrotation Yrotation Zrotation
										JOINT RightHandPinky3
										{
											OFFSET -1.410385 0.000000 -1.410385
											CHANNELS 6 Xposition Yposition Zposition Xrotation Yrotation Zrotation
											End Site
											{
												OFFSET 0.000000 -1.994586 0.000000
											}
										}
									}
								}
							}
						}
					}
				}
			}
		}
		JOINT LeftUpLeg
		{
			OFFSET -0.000015 0.000018 9.994125
			CHANNELS 6 Xposition Yposition Zposition Xrotation Yrotation Zrotation
			JOINT LeftLeg
			{
				OFFSET 41.202610 0.000001 0.000001
				CHANNELS 6 Xposition Yposition Zposition Xrotation Yrotation Zrotation
				JOINT LeftFoot
				{
					OFFSET 40.704845 0.000000 -0.000001
					CHANNELS 6 Xposition Yposition Zposition Xrotation Yrotation Zrotation
					JOINT LeftToeBase
					{
						OFFSET 8.953568 12.877190 0.000000
						CHANNELS 6 Xposition Yposition Zposition Xrotation Yrotation Zrotation
						JOINT LeftToeNub
						{
							OFFSET 5.535667 0.000000 0.000000
							CHANNELS 6 Xposition Yposition Zposition Xrotation Yrotation Zrotation
							End Site
							{
								OFFSET 0.000000 5.535664 0.000000
							}
						}
					}
				}
			}
		}
		JOINT RightUpLeg
		{
			OFFSET 0.000015 -0.000010 -9.994125
			CHANNELS 6 Xposition Yposition Zposition Xrotation Yrotation Zrotation
			JOINT RightLeg
			{
				OFFSET 41.202610 0.000000 0.000001
				CHANNELS 6 Xposition Yposition Zposition Xrotation Yrotation Zrotation
				JOINT RightFoot
				{
					OFFSET 40.704845 0.000000 -0.000001
					CHANNELS 6 Xposition Yposition Zposition Xrotation Yrotation Zrotation
					JOINT RightToeBase
					{
						OFFSET 8.953568 12.877190 0.000000
						CHANNELS 6 Xposition Yposition Zposition Xrotation Yrotation Zrotation
						JOINT RightToeNub
						{
							OFFSET 5.535667 0.000000 0.000000
							CHANNELS 6 Xposition Yposition Zposition Xrotation Yrotation Zrotation
							End Site
							{
								OFFSET 0.000000 5.535664 0.000000
							}
						}
					}
				}
			}
		}
	}
	JOINT Prop
	{
		OFFSET 0.000000 0.000000 0.000000
		CHANNELS 6 Xposition Yposition Zposition Xrotation Yrotation Zrotation
		End Site
		{
			OFFSET 0.000000 1.000000 0.000000
		}
	}
}
MOTION
Frames: 4
Frame Time: 0.008333
-1.772614 73.117188 69.396706 -552.470943 80.524338 677.093810 10.005948 0.000006 0.000014 1.154320 3.925670 30.257161 21.664995 0.000000 0.000001 -7.111249 -0.760837 6.996034 25.833010 0.000002 0.000001 1.496181 6.500820 -28.318231 14.033588 0.000004 -0.000000 0.966528 0.608704 -5.535276 21.600510 0.000002 -0.000000 0.000000 -0.000000 0.000001 21.665009 0.000013 3.045001 -17.309567 -12.097422 -12.177544 -0.000016 0.000008 15.550009 -44.602699 26.464478 18.573472 -19.070625 0.000009 19.070709 -29.093966 7.704562 -29.093976 -18.782478 0.000004 18.782450 233.175773 -64.205438 75.581951 -4.939486 -1.249037 0.422051 54.735609 -30.000008 -54.735613 -2.517301 -0.000010 2.517307 0.000000 -0.000002 0.000000 -1.826110 -0.000002 1.826118 -0.000000 -0.000002 -0.000000 -8.597689 0.000010 5.278149 0.000003 -0.000003 -0.000001 -2.302886 -0.000006 2.302879 -0.000002 -0.000003 0.000000 -1.960187 0.000000 1.960197 0.000003 -0.000002 0.000001 -7.533886 0.000007 7.091259 0.000002 -0.000003 -0.000000 -2.425842 -0.000006 2.425842 -0.000001 -0.000007 0.000001 -2.089225 0.000008 2.089256 -0.000002 -0.000000 0.000002 -5.804082 0.000008 8.321648 0.000003 -0.000003 -0.000000 -2.291877 0.000001 2.291884 -0.000001 -0.000010 -0.000000 -1.953976 0.000007 1.953972 0.000001 0.000002 0.000002 -3.770275 0.000003 8.934914 0.000003 -0.000003 -0.000000 -1.968659 0.000003 1.968673 0.000001 -0.000003 -0.000000 -1.410391 0.000004 1.410408 -0.000001 -0.000000 -0.000002 21.665003 0.000007 -3.044997 27.454840 15.631366 -17.905068 0.000037 0.000008 -15.550001 25.972438 -18.708267 -2.350935 -19.070641 0.000002 -19.070713 22.123147 -4.377410 -22.123162 -18.782465 0.000008 -18.782463 -208.300525 61.082245 64.119350 -4.939471 -1.249043 -0.422049 54.735609 30.000004 54.735606 -2.517306 -0.000019 -2.517307 0.000000 0.000000 0.000002 -1.826117 0.000004 -1.826107 -0.000001 -0.000002 -0.000000 -8.597692 -0.000005 -5.278141 -0.000001 0.000000 0.000002 -2.302881 0.000001 -2.302883 0.000001 0.000005 0.000002 -1.960182 0.000001 -1.960182 -0.000000 0.000000 0.000001 -7.533887 -0.000000 -7.091251 -0.000002 0.000000 0.000002 -2.425842 0.000003 -2.425846 0.000001 -0.000000 0.000003 -2.089229 0.000001 -2.089241 0.000002 0.000002 -0.000001 -5.804082 -0.000000 -8.321629 -0.000001 0.000000 0.000001 -2.291877 -0.000008 -2.291884 0.000001 0.000000 0.000004 -1.953967 0.000004 -1.953964 0.000000 0.000000 0.000004 -3.770272 -0.000004 -8.934925 0.000001 0.000000 0.000002 -1.968664 0.000002 -1.968666 0.000000 0.000003 0.000000 -1.410378 0.000001 -1.410408 0.000002 0.000000 -0.000001 -0.000010 0.000018 9.994125 -1.751721 184.019845 90.568650 41.202610 0.000006 0.000000 -0.000000 -0.000000 -87.294626 40.704842 0.000006 -0.000000 -8.613723 2.117749 8.785020 8.953569 12.877192 0.000000 -2.786050 -2.086080 106.323888 5.535660 0.000000 -0.000001 -0.000000 -0.000000 0.000001 0.000012 -0.000006 -9.994126 2.407375 169.804008 90.596148 41.202614 -0.000007 -0.000000 0.000001 0.000000 -92.177337 40.704849 -0.000004 -0.000001 1.669799 9.666929 -3.342845 8.953564 12.877171 -0.000001 1.874816 1.494920 114.315940 5.535667 0.000002 -0.000001 0.000000 -0.000000 0.000000 55.280914 0.000000 -0.964944 -0.000008 1.000000 -0.000000 
-2.259290 73.287048 69.393417 -553.772340 77.170599 678.671584 10.005942 0.000012 0.000013 -0.695264 6.426363 29.959522 21.665005 -0.000003 0.000001 -7.397862 -0.134081 7.067348 25.833010 0.000007 -0.000001 1.334459 8.549309 -27.876941 14.033581 -0.000012 -0.000001 1.016775 0.122656 -5.576219 21.600517 -0.000009 0.000001 0.000000 -0.000000 -0.000003 21.665001 0.000014 3.045003 -17.085341 -10.893070 -11.554853 0.000014 -0.000002 15.549996 -47.427864 26.197095 19.512971 -19.070637 0.000003 19.070717 -29.796024 8.097118 -29.796031 -18.782461 0.000005 18.782473 234.613118 -63.184222 76.886039 -4.939491 -1.249043 0.422047 54.735609 -30.000011 -54.735609 -2.517295 0.000001 2.517295 -0.000001 -0.000002 0.000000 -1.826116 -0.000001 1.826111 -0.000001 -0.000002 0.000001 -8.597687 0.000000 5.278145 -0.000003 -0.000009 0.000000 -2.302907 -0.000002 2.302871 0.000000 -0.000003 -0.000003 -1.960188 0.000003 1.960197 -0.000001 -0.000002 -0.000001 -7.533878 -0.000001 7.091259 -0.000002 -0.000005 -0.000000 -2.425849 0.000002 2.425849 0.000003 0.000003 -0.000002 -2.089240 -0.000003 2.089248 -0.000001 0.000003 0.000001 -5.804085 0.000000 8.321648 -0.000003 -0.000009 -0.000001 -2.291888 -0.000004 2.291862 -0.000001 -0.000003 -0.000003 -1.953972 0.000001 1.953964 -0.000000 -0.000002 0.000001 -3.770279 -0.000002 8.934914 -0.000002 -0.000009 0.000000 -1.968664 0.000001 1.968650 -0.000002 -0.000003 -0.000000 -1.410389 0.000001 1.410370 0.000001 0.000000 0.000000 21.665010 0.000005 -3.044999 27.457994 17.263578 -18.979508 0.000057 0.000011 -15.549996 23.962976 -19.043659 -1.961905 -19.070625 -0.000004 -19.070700 22.147544 -4.387302 -22.147551 -18.782476 0.000009 -18.782452 -207.558247 61.204348 63.656591 -4.939487 -1.249043 -0.422056 54.735623 30.000004 54.735603 -2.517306 -0.000009 -2.517303 0.000000 0.000002 0.000001 -1.826112 0.000010 -1.826111 -0.000001 0.000003 -0.000001 -8.597694 -0.000003 -5.278141 0.000001 -0.000002 -0.000004 -2.302875 -0.000001 -2.302883 0.000004 0.000005 -0.000000 -1.960189 0.000000 -1.960198 0.000001 -0.000002 0.000001 -7.533890 -0.000002 -7.091259 0.000002 -0.000002 -0.000001 -2.425837 0.000003 -2.425846 -0.000002 0.000003 0.000000 -2.089243 0.000001 -2.089241 0.000002 0.000002 0.000000 -5.804097 -0.000002 -8.321636 0.000001 -0.000002 -0.000003 -2.291883 0.000006 -2.291862 0.000004 0.000005 0.000001 -1.953966 0.000003 -1.953979 0.000004 -0.000002 0.000001 -3.770278 -0.000002 -8.934941 0.000003 -0.000002 -0.000001 -1.968659 0.000005 -1.968665 -0.000002 0.000005 -0.000000 -1.410374 -0.000003 -1.410393 0.000000 0.000002 0.000000 -0.000017 0.000027 9.994125 -2.110351 181.349254 90.718620 41.202610 0.000002 -0.000000 -0.000001 -0.000000 -86.242449 40.704857 0.000001 -0.000004 -17.374321 2.729892 9.602238 8.953574 12.877175 0.000002 -3.970776 -2.805737 105.750808 5.535676 0.000001 0.000002 0.000000 0.000004 0.000000 0.000001 0.000001 -9.994123 2.846134 168.454731 90.069015 41.202618 -0.000004 0.000000 -0.000000 0.000000 -91.603396 40.704838 -0.000004 -0.000008 -3.328030 7.388764 -3.236190 8.953573 12.877191 0.000004 1.737891 1.413398 114.692919 5.535667 0.000003 0.000006 -0.000001 0.000000 0.000001 55.280914 0.000000 -0.964944 -0.000008 1.000000 -0.000000 
-2.642745 73.273361 69.481766 -553.596668 73.963319 678.603063 10.005942 0.000002 0.000017 -2.614932 8.801092 29.785970 21.664989 -0.000010 0.000000 -7.788773 0.442736 7.146961 25.832991 0.000002 -0.000001 1.193766 10.462608 -27.470731 14.033588 0.000009 0.000001 1.116122 -0.465233 -5.484349 21.600510 -0.000009 0.000000 -0.000000 -0.000000 -0.000000 21.664991 -0.000002 3.045001 -16.955820 -9.888710 -11.055763 -0.000007 0.000004 15.550006 -50.027386 25.837117 20.483987 -19.070639 0.000006 19.070711 -30.308080 8.390320 -30.308090 -18.782454 0.000006 18.782469 236.194772 -62.472797 78.428965 -4.939478 -1.249041 0.422059 54.735616 -30.000008 -54.735609 -2.517297 -0.000018 2.517299 -0.000000 -0.000005 0.000001 -1.826118 -0.000012 1.826118 -0.000000 -0.000002 0.000001 -8.597680 0.000004 5.278160 -0.000000 -0.000002 -0.000000 -2.302892 0.000002 2.302872 0.000004 -0.000005 -0.000000 -1.960194 0.000002 1.960198 0.000001 -0.000003 0.000001 -7.533879 0.000001 7.091267 -0.000001 -0.000002 -0.000001 -2.425840 0.000002 2.425827 0.000004 -0.000003 -0.000000 -2.089235 0.000003 2.089241 -0.000003 -0.000002 0.000000 -5.804079 0.000001 8.321648 -0.000000 -0.000002 0.000000 -2.291877 -0.000002 2.291878 0.000002 -0.000002 0.000001 -1.953969 -0.000004 1.953972 -0.000003 -0.000003 0.000001 -3.770269 0.000005 8.934929 -0.000001 -0.000002 -0.000000 -1.968667 -0.000003 1.968666 0.000001 -0.000009 0.000001 -1.410388 0.000004 1.410378 0.000000 0.000000 0.000002 21.664991 0.000004 -3.044997 27.227340 18.828723 -19.871063 0.000049 0.000004 -15.549994 22.257701 -19.343362 -1.783419 -19.070627 -0.000003 -19.070713 22.124460 -4.377932 -22.124468 -18.782469 0.000012 -18.782444 -206.491604 61.129708 62.830692 -4.939499 -1.249043 -0.422038 54.735620 30.000004 54.735603 -2.517301 0.000001 -2.517310 -0.000000 0.000003 0.000001 -1.826109 -0.000011 -1.826111 0.000002 0.000002 0.000001 -8.597709 -0.000005 -5.278126 0.000000 -0.000002 -0.000001 -2.302890 0.000007 -2.302890 0.000003 0.000003 0.000003 -1.960188 0.000002 -1.960205 -0.000001 -0.000003 -0.000001 -7.533903 -0.000006 -7.091244 -0.000002 -0.000002 0.000001 -2.425842 0.000004 -2.425823 0.000002 0.000007 -0.000001 -2.089243 -0.000002 -2.089248 -0.000002 0.000000 0.000003 -5.804102 -0.000007 -8.321613 0.000000 -0.000002 -0.000000 -2.291891 0.000001 -2.291877 0.000003 0.000000 0.000003 -1.953976 0.000000 -1.953964 -0.000001 -0.000007 0.000003 -3.770294 -0.000008 -8.934910 0.000000 -0.000002 -0.000000 -1.968657 -0.000001 -1.968680 0.000000 0.000003 -0.000001 -1.410379 0.000001 -1.410400 -0.000000 -0.000003 -0.000002 -0.000012 0.000026 9.994127 -2.831811 179.225462 90.073065 41.202618 -0.000001 -0.000000 0.000001 0.000000 -84.614064 40.704845 0.000005 -0.000004 -25.031158 2.253380 12.194049 8.953568 12.877191 0.000003 -4.921676 -3.236852 104.264272 5.535652 0.000001 -0.000006 -0.000000 -0.000002 0.000000 0.000010 -0.000012 -9.994122 3.262595 166.910139 89.144999 41.202610 -0.000004 -0.000005 -0.000003 -0.000001 -91.109833 40.704849 0.000008 -0.000003 -7.637087 5.893646 -2.123047 8.953559 12.877186 -0.000001 1.375419 1.174389 115.536543 5.535659 -0.000004 -0.000002 -0.000000 0.000001 0.000000 55.280914 0.000000 -0.964944 -0.000008 1.000000 -0.000000 
-2.961008 73.089798 69.670982 -553.139209 71.067838 677.987253 10.005926 -0.000013 0.000012 -4.458951 10.876107 29.812270 21.665009 0.000002 0.000001 -8.246595 0.937526 7.257301 25.833000 0.000005 -0.000001 1.149787 12.399197 -27.080771 14.033581 -0.000020 -0.000001 1.319338 -1.124561 -5.463832 21.600502 -0.000002 0.000002 -0.000000 -0.000000 -0.000001 21.664997 -0.000002 3.044999 -16.763495 -9.176279 -10.679607 -0.000005 0.000012 15.550014 -52.403192 25.473006 21.284027 -19.070644 -0.000002 19.070700 -30.580406 8.548626 -30.580410 -18.782452 0.000001 18.782465 236.268073 -62.458795 78.652101 -4.939501 -1.249042 0.422046 54.735606 -30.000011 -54.735609 -2.517299 -0.000004 2.517303 -0.000001 -0.000003 -0.000000 -1.826117 -0.000010 1.826115 0.000000 -0.000000 -0.000000 -8.597700 -0.000001 5.278133 -0.000002 -0.000002 -0.000004 -2.302893 -0.000006 2.302887 0.000002 -0.000010 0.000000 -1.960192 0.000008 1.960197 0.000002 -0.000003 0.000000 -7.533895 0.000000 7.091251 -0.000003 -0.000002 -0.000005 -2.425834 0.000000 2.425849 0.000002 -0.000007 0.000003 -2.089234 0.000002 2.089241 0.000001 -0.000000 0.000001 -5.804090 -0.000001 8.321655 -0.000002 -0.000002 -0.000003 -2.291866 -0.000002 2.291878 0.000001 -0.000002 0.000004 -1.953958 -0.000002 1.953987 -0.000000 -0.000000 0.000001 -3.770292 0.000001 8.934906 -0.000000 -0.000002 -0.000005 -1.968663 -0.000005 1.968658 -0.000001 -0.000003 0.000002 -1.410380 0.000004 1.410393 0.000001 -0.000002 -0.000001 21.664993 0.000005 -3.044996 26.944710 20.491394 -20.761152 0.000069 0.000009 -15.550007 20.918974 -19.731609 -1.535812 -19.070646 0.000000 -19.070711 22.153034 -4.389535 -22.153046 -18.782461 0.000003 -18.782459 -205.425371 61.032241 61.904730 -4.939481 -1.249051 -0.422046 54.735620 30.000008 54.735606 -2.517302 -0.000007 -2.517307 -0.000000 0.000009 -0.000003 -1.826112 0.000007 -1.826111 0.000000 0.000003 -0.000001 -8.597697 -0.000008 -5.278137 0.000003 -0.000002 0.000004 -2.302887 -0.000001 -2.302891 0.000003 0.000003 0.000003 -1.960189 0.000000 -1.960197 0.000002 -0.000005 -0.000004 -7.533897 -0.000009 -7.091244 0.000003 -0.000002 0.000004 -2.425838 0.000003 -2.425845 -0.000003 0.000007 -0.000000 -2.089243 0.000004 -2.089241 -0.000001 -0.000003 -0.000000 -5.804088 -0.000006 -8.321621 0.000003 -0.000002 0.000001 -2.291874 0.000003 -2.291884 0.000004 0.000007 0.000005 -1.953969 -0.000009 -1.953979 0.000002 -0.000002 0.000002 -3.770276 -0.000008 -8.934917 0.000003 0.000000 0.000004 -1.968657 0.000003 -1.968657 -0.000001 0.000003 0.000000 -1.410363 -0.000001 -1.410393 0.000001 0.000000 -0.000000 -0.000025 0.000010 9.994122 -3.667118 178.260247 88.756826 41.202614 -0.000001 0.000002 0.000001 -0.000000 -82.864231 40.704849 0.000002 -0.000002 -29.546572 1.770140 16.099591 8.953567 12.877186 -0.000004 -5.257098 -3.167920 102.084964 5.535675 0.000000 0.000003 -0.000000 -0.000000 -0.000000 0.000011 -0.000020 -9.994130 3.875515 165.458587 87.717490 41.202618 -0.000003 0.000004 0.000003 0.000002 -90.687106 40.704845 0.000008 -0.000012 -10.526355 5.653766 -0.504277 8.953554 12.877191 -0.000007 0.867059 0.859479 117.452930 5.535660 -0.000002 0.000006 0.000001 -0.000003 -0.000000 55.280914 0.000000 -0.964944 -0.000008 1.000000 -0.000000 
